<?xml version="1.0" standalone="no"?><!DOCTYPE svg PUBLIC "-//W3C//DTD SVG 1.1//EN" "http://www.w3.org/Graphics/SVG/1.1/DTD/svg11.dtd"><svg t="1766567559025" class="icon" viewBox="0 0 1115 1024" version="1.1" xmlns="http://www.w3.org/2000/svg" p-id="1814" xmlns:xlink="http://www.w3.org/1999/xlink" width="217.7734375" height="200"><path d="M798.09782 1024H317.398375a95.193216 95.193216 0 0 1-93.352463-97.033969V450.474021s0-5.259294-2.629647-5.259294a91.248746 91.248746 0 0 1-114.652603-15.777881L26.296469 343.710359a100.189545 100.189545 0 0 1 0-135.163849l168.034434-179.07895A90.722816 90.722816 0 0 1 261.123933 0.27848h3.418541l30.503903 1.314823a92.563569 92.563569 0 0 1 71.26343 41.285456 231.408923 231.408923 0 0 0 190.912361 95.98211 231.145958 231.145958 0 0 0 190.386433-95.98211A92.563569 92.563569 0 0 1 819.39796 1.593303L851.742616 0.015515a92.563569 92.563569 0 0 1 69.422677 29.452045l168.034434 179.07895a100.189545 100.189545 0 0 1 0 135.163849l-80.467194 85.726487a91.248746 91.248746 0 0 1-113.337779 16.566775c-4.207435 0-3.94447 3.94447-3.94447 4.4704v476.49201a95.193216 95.193216 0 0 1-93.352464 97.033969z m-576.681555-657.411714a82.044982 82.044982 0 0 1 81.519053 84.1487v476.229045a16.82974 16.82974 0 0 0 14.463057 18.144563h480.699445a16.82974 16.82974 0 0 0 14.463058-18.144563V450.474021a82.044982 82.044982 0 0 1 81.519052-84.148699 78.889406 78.889406 0 0 1 41.548421 11.833411 12.622305 12.622305 0 0 0 15.777881-2.629647l78.889406-85.726488a20.77421 20.77421 0 0 0 0-26.296468l-166.719611-180.13081a12.35934 12.35934 0 0 0-9.203764-4.470399l-29.977974 1.577788a14.463058 14.463058 0 0 0-10.781552 6.837081 310.824258 310.824258 0 0 1-255.601675 131.482343 311.613152 311.613152 0 0 1-256.127603-131.482343 14.463058 14.463058 0 0 0-10.518588-6.837081l-30.240938-1.314824a11.833411 11.833411 0 0 0-8.9408 4.207435l-168.297398 179.078951a20.511245 20.511245 0 0 0 0 26.296469l80.467193 85.989452a12.35934 12.35934 0 0 0 15.777882 2.366682 80.993123 80.993123 0 0 1 41.285455-10.781552z" fill="#2c2c2c" p-id="1815"></path></svg>