<?xml version="1.0" standalone="no"?><!DOCTYPE svg PUBLIC "-//W3C//DTD SVG 1.1//EN" "http://www.w3.org/Graphics/SVG/1.1/DTD/svg11.dtd"><svg t="1766567776893" class="icon" viewBox="0 0 1024 1024" version="1.1" xmlns="http://www.w3.org/2000/svg" p-id="2729" xmlns:xlink="http://www.w3.org/1999/xlink" width="200" height="200"><path d="M771.607 76c60.337 0 109.364 48.466 110.339 108.624l0.015 1.826v56.41c0 16.52-13.381 29.914-29.888 29.914-16.27 0-29.504-13.013-29.879-29.208l-0.008-0.706v-56.41c0-27.678-22.194-50.169-49.742-50.616l-0.837-0.007H185.354c-27.655 0-50.126 22.214-50.572 49.786l-0.007 0.837v658.1c0 27.678 22.194 50.169 49.742 50.616l0.837 0.007h586.253c27.655 0 50.125-22.214 50.572-49.786l0.007-0.837v-57.79c0-16.521 13.38-29.914 29.887-29.914 16.27 0 29.505 13.013 29.88 29.208l0.008 0.706v57.79c0 60.39-48.424 109.46-108.529 110.435l-1.825 0.015H185.354c-60.338 0-109.365-48.466-110.34-108.624L75 844.55v-658.1c0-60.39 48.424-109.46 108.529-110.435l1.825-0.015h586.253z m-6.038 249.971l0.578 0.512L946.19 489.889l0.045 0.04a29.747 29.747 0 0 1 7.725 11.23l0.085 0.223a15.324 15.324 0 0 1 0.155 0.415l0.09 0.252a29.831 29.831 0 0 1 1.695 9.012l0.002 0.057c0.009 0.297 0.014 0.595 0.014 0.892v0.038a29.92 29.92 0 0 1-1.411 9.11 29.736 29.736 0 0 1-6.762 11.446l-0.111 0.116a18.26 18.26 0 0 1-0.147 0.152l-0.044 0.046c-0.154 0.158-0.31 0.314-0.467 0.469l-0.047 0.047-180.042 176.248c-11.8 11.552-30.723 11.342-42.265-0.469-11.359-11.623-11.336-30.15-0.085-41.746l0.553-0.555 127.638-124.95H478.48c-16.506 0-29.887-13.393-29.887-29.914 0-16.284 13.001-29.53 29.182-29.905l0.705-0.008 370.179-0.001-122.665-111.332c-12.037-10.925-13.12-29.427-2.575-41.676l0.511-0.578c10.915-12.047 29.4-13.131 41.64-2.577z" fill="#333333" p-id="2730"></path></svg>