<?xml version="1.0" standalone="no"?><!DOCTYPE svg PUBLIC "-//W3C//DTD SVG 1.1//EN" "http://www.w3.org/Graphics/SVG/1.1/DTD/svg11.dtd"><svg t="1766567981749" class="icon" viewBox="0 0 1318 1024" version="1.1" xmlns="http://www.w3.org/2000/svg" p-id="8260" xmlns:xlink="http://www.w3.org/1999/xlink" width="257.421875" height="200"><path d="M685.684078 773.5098c-7.405388 0-14.575685-0.587729-21.628436-1.880734-48.546435-8.580847-77.110076-45.960426-81.459272-106.143899-4.349196 60.065928-32.912837 97.563053-81.459272 106.143899-73.701246 13.047589-175.025766-45.490243-200.650761-115.782659-16.926602-46.313064 1.293004-89.805027 51.132444-123.658231-54.188635 26.212724-100.971883 20.217886-132.591716-17.514331-48.193797-57.362373-48.193797-174.320491 0-231.682865 31.737379-37.732217 78.40308-43.844601 132.591716-17.514331-49.839439-33.853204-68.059045-77.227622-51.132444-123.658231C326.111332 71.526001 427.318306 13.105715 501.137098 26.035759c48.546435 8.580847 77.110076 45.960426 81.459272 106.143899 4.349196-60.065928 32.912837-97.563053 81.459272-106.143899 73.701246-13.047589 175.025766 45.490243 200.650761 115.782659 16.926602 46.313064-1.293004 89.805027-51.132443 123.658231 54.188635-26.212724 100.971883-20.217886 132.591715 17.514331 48.193797 57.362373 48.193797 174.320491 0 231.682865-31.737379 37.732217-78.40308 43.727055-132.591715 17.514331 49.839439 33.853204 68.059045 77.227622 51.132443 123.658231-23.156532 63.709849-108.377271 117.663393-179.022325 117.663393z m-103.675437-124.598598h1.175459c0 69.234504 28.798733 112.37383 81.106634 121.659952 73.231063 12.930043 173.850308-45.137605 199.357757-115.077384 18.219606-49.956985-4.81938-96.387595-64.767762-131.06362l0.587729-1.057913c59.948382 34.558479 111.786101 31.267195 145.874396-9.403667 47.84116-57.009736 47.84116-173.145033 0-230.154769-34.088296-40.670863-85.926014-44.079693-145.874396-9.403668l-0.587729-1.057912c59.948382-34.558479 82.987368-81.106634 64.767762-131.06362C838.141042 72.348822 737.521797 14.281174 664.290734 27.211217c-52.307902 9.168576-81.106634 52.425448-81.106634 121.659952h-1.175459c0-69.234504-28.798733-112.37383-81.106634-121.659952-73.231063-12.930043-173.850308 45.137605-199.357757 115.077384-18.219606 49.956985 4.81938 96.387595 64.767762 131.06362l-0.58773 1.057912c-59.948382-34.558479-111.786101-31.267195-145.874396 9.403668-47.84116 57.009736-47.84116 173.145033 0 230.154769 34.088296 40.670863 85.926014 44.079693 145.874396 9.403667l0.58773 1.057913c-59.948382 34.558479-82.987368 81.106634-64.767762 131.06362C327.051699 725.316003 427.670944 783.383651 500.902007 770.453608c52.307902-9.168576 81.106634-52.425448 81.106634-121.542406z m-7.052751-75.699525c-98.856057 0-179.374963-80.518905-179.374962-179.374963S476.099833 214.461751 574.95589 214.461751s179.374963 80.518905 179.374963 179.374963S673.811948 573.211677 574.95589 573.211677z m0-357.574467c-98.268328 0-178.199504 79.931176-178.199504 178.199504s79.931176 178.199504 178.199504 178.199504 178.199504-79.931176 178.199504-178.199504-79.931176-178.199504-178.199504-178.199504z" fill="#2c2c2c" p-id="8261"></path><path d="M582.59637 51.895845C558.969655 16.514545 524.29363 5.582781 505.368749 2.173952 420.030464-12.871917 307.303997 52.248483 277.682443 133.590209c-6.582567 18.10206-14.458139 53.600906 4.466742 91.803306-42.551597 2.703554-69.234504 27.270637-81.694363 42.081413-55.599186 66.295858-55.599186 196.536656 0 262.832514 12.45986 14.810777 39.142767 39.377859 81.694363 42.081414-18.924881 38.2024-11.04931 73.5837-4.466742 91.803306 29.621553 81.341726 142.348021 146.462125 227.56876 131.416257 19.042427-3.40883 53.718452-14.223047 77.227621-49.721893 23.626715 35.3813 58.30274 46.313064 77.227622 49.721893 85.220739 15.045868 197.947206-50.074531 227.56876-131.416257 6.582567-18.10206 14.458139-53.600906-4.466742-91.803306 42.551597-2.703554 69.234504-27.270637 81.694363-42.081414 27.858366-33.147929 41.728776-82.282093 41.728776-131.416257s-13.87041-98.268328-41.728776-131.416257c-12.45986-14.810777-39.142767-39.377859-81.694363-42.081413 18.924881-38.2024 11.04931-73.5837 4.466742-91.803306-29.386462-81.341726-142.112929-146.462125-227.451214-131.416257-19.042427 3.40883-53.600906 14.340593-77.227622 49.721893z m258.248226 98.738511c14.105502 38.672584-4.114105 72.878425-54.071089 101.794704-11.872131 6.817659-15.986235 22.098619-9.051031 33.97075 4.584288 7.993118 12.930043 12.45986 21.51089 12.45986 4.23165 0 8.463301-1.057913 12.342314-3.291284 49.956985-28.798733 88.747115-27.505728 115.19493 3.996559 40.553317 48.311343 40.553317 150.57623 0 199.005119-26.447816 31.502287-65.237945 32.912837-115.19493 3.996559-3.761467-2.233371-7.993118-3.291284-12.342314-3.291284-8.580847 0-16.926602 4.466742-21.51089 12.45986-6.817659 11.872131-2.8211 27.035545 9.051031 33.970749 49.956985 28.798733 68.176591 63.12212 54.071089 101.794704-21.628436 59.360653-110.140459 110.493096-172.322212 99.443787-40.553317-7.170297-61.12384-40.083134-61.12384-97.798145 0-13.752864-11.166855-24.802174-24.802174-24.802174-13.752864 0-24.802174 11.166855-24.802173 24.802174 0 57.715011-20.570523 90.627848-61.123841 97.798145-62.181753 10.931764-150.693776-40.20068-172.322212-99.443787-14.105502-38.672584 4.114105-72.878425 54.07109-101.794704 11.872131-6.817659 15.986235-22.098619 9.05103-33.970749-4.584288-7.993118-12.930043-12.45986-21.51089-12.45986-4.23165 0-8.463301 1.057913-12.342314 3.291284-49.956985 28.798733-88.747115 27.505728-115.19493-3.996559-40.553317-48.311343-40.553317-150.57623 0-199.005119 26.447816-31.502287 65.237945-32.912837 115.19493-3.996559 11.872131 6.817659 27.035545 2.8211 33.853204-9.05103 6.817659-11.872131 2.8211-27.035545-9.05103-33.97075-49.956985-28.798733-68.176591-63.12212-54.07109-101.794704C345.97658 91.39125 434.488603 40.258806 496.670356 51.308116c40.553317 7.170297 61.12384 40.083134 61.123841 97.798144 0 13.752864 11.166855 24.802174 24.802173 24.802174 13.752864 0 24.802174-11.166855 24.802174-24.802174 0-57.715011 20.570523-90.627848 61.12384-97.798144 62.064207-11.166855 150.693776 39.965588 172.322212 99.32624z" fill="#2c2c2c" p-id="8262"></path><path d="M371.366483 393.836714c0 112.256284 91.333123 203.589407 203.589407 203.589407s203.589407-91.333123 203.589407-203.589407S687.212174 190.247307 574.95589 190.247307 371.366483 281.58043 371.366483 393.836714z m357.574467 0c0 84.868102-69.116958 153.98506-153.98506 153.98506s-153.98506-69.116958-153.985059-153.98506 69.116958-153.98506 153.985059-153.98506 153.98506 69.116958 153.98506 153.98506z" fill="#2c2c2c" p-id="8263"></path><path d="M616.802212 440.855053c0 22.686348-18.337152 41.023501-41.023501 41.0235S534.755211 463.541401 534.755211 440.855053h82.047001z" fill="#2c2c2c" p-id="8264"></path><path d="M575.778711 493.633138c-29.15137 0-52.778085-23.744261-52.778085-52.778085 0-6.465022 5.289563-11.754585 11.754585-11.754585h82.047001c6.465022 0 11.754585 5.289563 11.754584 11.754585 0 29.15137-23.626715 52.778085-52.778085 52.778085z m-26.800453-41.0235c4.584288 10.344035 14.810777 17.514331 26.800453 17.514331s22.333711-7.170297 26.800453-17.514331H548.978258z" fill="#2c2c2c" p-id="8265"></path><path d="M583.889375 478.704816h-16.103781c-8.463301 0-15.28096-6.935205-15.280961-15.280961 0-8.463301 6.935205-15.28096 15.280961-15.28096h16.103781c8.463301 0 15.28096 6.935205 15.28096 15.28096s-6.935205 15.28096-15.28096 15.280961z" fill="#2c2c2c" p-id="8266"></path><path d="M587.298204 1024c-12.930043 0-23.509169-10.579126-23.509169-23.509169v-137.528641c0-12.930043 10.579126-23.509169 23.509169-23.50917s23.509169 10.579126 23.50917 23.50917v137.528641c0 13.047589-10.46158 23.509169-23.50917 23.509169zM427.318306 984.38705c-7.64048 0-15.163414-0.822821-22.803894-2.350917-63.474757-13.282681-99.091149-78.755718-100.619245-81.459272-5.759747-10.814218-2.233371-24.33199 8.228209-30.914558 43.02178-27.270637 84.162826-35.3813 122.247681-24.214445 58.30274 17.161694 85.455831 74.053884 86.631289 76.522347 4.584288 9.873851 1.763188 21.628436-6.700113 28.328549-28.798733 22.686348-57.950103 34.088296-86.983927 34.088296z m-68.529228-86.748836c11.872131 14.693231 31.149649 33.383021 55.599185 38.437492 16.926602 3.526375 34.793571-0.235092 53.365815-10.931763-9.403668-12.45986-25.154811-28.446095-47.018339-34.793571-18.572244-5.407109-39.377859-2.938646-61.946661 7.287842zM737.756888 984.38705c-28.916278 0-58.067648-11.401947-86.866381-34.205842-8.580847-6.700113-11.284401-18.454698-6.700113-28.328549 1.175458-2.468463 28.211003-59.360653 86.631289-76.522347 37.967309-11.166855 79.108355-3.056192 122.247681 24.214445 10.46158 6.582567 13.987956 20.10034 8.22821 30.914558-1.528096 2.8211-37.144488 68.294137-100.619245 81.459272-7.64048 1.645642-15.28096 2.468463-22.921441 2.468463z m-40.435771-59.243107c18.68979 10.814218 36.674304 14.458139 53.600906 10.931763 24.214444-5.054471 43.491963-23.626715 55.364094-38.437492-22.568803-10.226489-43.374418-12.577406-62.064207-7.287842-21.628436 6.347476-37.379579 22.333711-46.900793 34.793571z" fill="#2c2c2c" p-id="8267"></path><path d="M493.496618 380.671579m-30.326828 0a30.326829 30.326829 0 1 0 60.653657 0 30.326829 30.326829 0 1 0-60.653657 0Z" fill="#2c2c2c" p-id="8268"></path><path d="M656.297616 380.671579m-30.326828 0a30.326829 30.326829 0 1 0 60.653657 0 30.326829 30.326829 0 1 0-60.653657 0Z" fill="#2c2c2c" p-id="8269"></path></svg>